<?xml version="1.0" encoding="utf-8"?>
<!-- Generator: Adobe Illustrator 17.1.0, SVG Export Plug-In . SVG Version: 6.00 Build 0)  -->
<!DOCTYPE svg PUBLIC "-//W3C//DTD SVG 1.1//EN" "http://www.w3.org/Graphics/SVG/1.1/DTD/svg11.dtd">
<svg version="1.1" id="Layer_1" xmlns="http://www.w3.org/2000/svg" xmlns:xlink="http://www.w3.org/1999/xlink" x="0px" y="0px"
	 viewBox="0 0 48.5 43" enable-background="new 0 0 48.5 43" xml:space="preserve">
<g>
	<g>
		<path fill="#575C6D" d="M29.7,28c-0.2-0.1-0.3-0.1-0.5-0.1c-0.4,0-0.8,0.2-1,0.5c-0.1,0.2-1.1,1.8-3.9,1.8h-0.1
			c-2.8,0-3.8-1.6-3.9-1.8c-0.2-0.3-0.6-0.5-1-0.5c-0.2,0-0.4,0-0.5,0.1c-0.3,0.1-0.5,0.4-0.5,0.6c-0.1,0.3,0,0.5,0.1,0.8
			c0.2,0.3,1.8,2.8,5.8,2.8h0.1c4.1,0,5.7-2.5,5.8-2.8c0.1-0.2,0.2-0.5,0.1-0.8C30.1,28.4,29.9,28.2,29.7,28z"/>
		<path fill="#575C6D" d="M33.9,6l-0.6-0.9L31.4,6V4.5l-0.8-0.3c-1.8-0.6-3.8-1-6-1c-4.8,0-8.7,1.6-8.9,1.7l-0.3,0.1l-0.2,0.3
			c-6.8,8.9-5.5,18.6-5.4,19.2c-1.1,0.8-1.7,2-1.7,3.4c0,2.3,1.8,4.1,4.1,4.1c0,0,0.1,0,0.1,0c2.5,4.8,7.1,7.8,12,7.8
			c4.9,0,9.5-3,12-7.8c0.1,0,0.1,0,0.2,0c2.3,0,4.1-1.8,4.1-4.1c0-1.4-0.7-2.6-1.8-3.4C38.7,24.5,39.5,15.4,33.9,6z M36.4,29.6
			c-0.2,0-0.3,0-0.5-0.1l-1-0.3l-0.4,1c-2,4.4-5.9,7.2-10.2,7.2c-4.3,0-8.2-2.7-10.2-7.2l-0.4-1l-1,0.3c-0.1,0-0.3,0.1-0.5,0.1
			c-0.9,0-1.7-0.7-1.7-1.7c0-0.7,0.4-1.3,1.1-1.6l1-0.4c0,0-2.3-9.6,4.3-18.9c0.9-0.3,4-1.4,7.6-1.4c1.5,0,3,0.2,4.3,0.6v3.5
			l3.4-1.5c5.3,9.5,3.8,17.8,3.8,17.8l0.8,0.3c0.7,0.2,1.1,0.9,1.1,1.6C38,28.8,37.3,29.6,36.4,29.6z"/>
		<path fill="#575C6D" d="M30.5,22.2c-1.1,0-2,0.9-2,2c0,0.1,0,0.1,0,0.2l0,0.1l3.7,0.8l0-0.1c0.2-0.3,0.3-0.7,0.3-1.1
			C32.5,23.1,31.6,22.2,30.5,22.2z"/>
		<path fill="#575C6D" d="M19.9,24.4c0,0,0-0.1,0-0.1c0-1.1-0.9-2-2-2c-1.1,0-2,0.9-2,2c0,0.4,0.1,0.7,0.3,1l0,0.1l3.7-0.8
			L19.9,24.4z"/>
	</g>
</g>
</svg>
