<?xml version="1.0" encoding="utf-8"?>
<!-- Generator: Adobe Illustrator 17.1.0, SVG Export Plug-In . SVG Version: 6.00 Build 0)  -->
<!DOCTYPE svg PUBLIC "-//W3C//DTD SVG 1.1//EN" "http://www.w3.org/Graphics/SVG/1.1/DTD/svg11.dtd">
<svg version="1.1" id="Layer_2" xmlns="http://www.w3.org/2000/svg" xmlns:xlink="http://www.w3.org/1999/xlink" x="0px" y="0px"
	 viewBox="0 0 48.5 43" enable-background="new 0 0 48.5 43" xml:space="preserve">
<path fill="#575C6D" d="M24.2,6.9c-7.4,0-13.4,6-13.4,13.4c0,7.4,6,13.4,13.4,13.4s13.4-6,13.4-13.4C37.7,12.9,31.6,6.9,24.2,6.9z
	 M24.2,31.2c-6,0-10.9-4.9-10.9-10.9S18.3,9.5,24.2,9.5s10.9,4.9,10.9,10.9S30.2,31.2,24.2,31.2z"/>
<path fill="#575C6D" d="M25.2,18.9L25.2,18.9L25.2,18.9C25.2,18.9,25.2,18.9,25.2,18.9l-6.5-4.5l0,0c0,0-0.1-0.1-0.2-0.1
	c-0.1,0-0.3,0.1-0.3,0.3c0,0.1,0,0.1,0,0.1l0,0l4.4,6.5c0,0,0,0,0,0l0,0l0,0c0.3,0.4,0.8,0.7,1.4,0.7c0.9,0,1.7-0.8,1.7-1.7
	C26,19.7,25.7,19.2,25.2,18.9z"/>
</svg>
