<?xml version="1.0" encoding="utf-8"?>
<!-- Generator: Adobe Illustrator 17.1.0, SVG Export Plug-In . SVG Version: 6.00 Build 0)  -->
<!DOCTYPE svg PUBLIC "-//W3C//DTD SVG 1.1//EN" "http://www.w3.org/Graphics/SVG/1.1/DTD/svg11.dtd">
<svg version="1.1" id="Layer_1" xmlns="http://www.w3.org/2000/svg" xmlns:xlink="http://www.w3.org/1999/xlink" x="0px" y="0px"
	 viewBox="0 0 48.5 43" enable-background="new 0 0 48.5 43" xml:space="preserve">
<g>
	<path fill="#575C6D" d="M43.8,15.1L33.2,4.5l-1.6-1.6c-0.4-0.4-1.1-0.4-1.5,0.1l-0.7,0.9l-8.8,11.3l-1.2-1.2L18,15.3l-4,4l-1.4,1.4
		l1.3,1.4c0.1,0.1,2.8,3.1,0.9,5c0,0-1.1,1.1-2.9,2.4C11,30,7.1,32.6,6.7,35.7c-0.2,1.2,0.1,2.3,0.9,3.2L7.7,39l0.1,0.1
		c0.9,0.8,2,1.1,3.2,0.9c3-0.5,5.6-4.3,6.2-5.2c1.3-1.8,2.4-2.9,2.4-2.9c0.5-0.5,1.3-1,2.9-0.4c1.1,0.5,2,1.2,2,1.3l1.4,1.3l1.4-1.4
		l4-4l1.4-1.4l-1.2-1.2l9.2-7.2l2.7-2.1l0,0l0.4-0.3C44.2,16.1,44.2,15.5,43.8,15.1z M25.9,31.3c0,0-4.4-4.1-7.7-0.8
		c0,0-1.2,1.2-2.6,3.2c0,0-3.8,6.1-6.5,3.9C6.9,35,13,31.1,13,31.1c2-1.4,3.2-2.6,3.2-2.6c3.3-3.3-0.8-7.7-0.8-7.7l4-4l1.2,1.2
		l4.1,4.1l4.1,4.1l1.2,1.2L25.9,31.3z M30.1,24.7l-4-4L22,16.5l8.8-11.2c0.4,0.4,1.1,1.1,1.7,1.9c0.1,0.2,0.2,0.3,0.2,0.4
		c0,0.1,0.1,0.2,0.1,0.2c0.1,0.2,0.1,0.3,0.2,0.5c0,0,0,0.1,0,0.1c0,0.1,0,0.1,0,0.2c0.1,1.1-0.3,2.2-0.9,3.1
		c-0.2,0.4-0.5,0.7-0.6,1.1c-0.1,0.6,0.1,1.2,0.5,1.6c0.2,0.2,0.4,0.3,0.7,0.4c0.8,0.3,1.7,0.1,2.3-0.5c0.3-0.2,0.6-0.6,1-0.6
		c0.2,0,0.4,0.1,0.5,0.2c0.3,0.3,0.4,0.7,0.6,1.1c0.1,0.2,0.2,0.4,0.5,0.6c0.6,0.6,1.5,1.2,1.9,1.3L30.1,24.7z"/>
</g>
</svg>
