<?xml version="1.0" encoding="utf-8"?>
<!-- Generator: Adobe Illustrator 17.1.0, SVG Export Plug-In . SVG Version: 6.00 Build 0)  -->
<!DOCTYPE svg PUBLIC "-//W3C//DTD SVG 1.1//EN" "http://www.w3.org/Graphics/SVG/1.1/DTD/svg11.dtd">
<svg version="1.1" id="Layer_1" xmlns="http://www.w3.org/2000/svg" xmlns:xlink="http://www.w3.org/1999/xlink" x="0px" y="0px"
	 viewBox="0 0 48.5 43" enable-background="new 0 0 48.5 43" xml:space="preserve">
<g>
	<g>
		<path fill="#575C6D" d="M8.3,6.6V36h31.8V6.6H8.3z M10.9,33.5V14.3h26.7v19.2H10.9z"/>
		<path fill="#575C6D" d="M26.9,22.9c-0.3-0.3-0.7-0.6-1.2-0.8c-0.5-0.2-1-0.3-1.5-0.3c-0.2,0-0.4,0-0.7,0c-0.2,0-0.4,0.1-0.6,0.1
			l0-2.3h4.6V18h-6.5L21,24.2c0.3-0.2,0.7-0.3,1.1-0.4c0.4-0.1,0.8-0.1,1.3-0.1c0.4,0,0.7,0,1,0.1c0.3,0.1,0.6,0.2,0.9,0.4
			s0.4,0.4,0.6,0.7c0.1,0.3,0.2,0.6,0.2,1c0,0.3,0,0.5-0.1,0.8c-0.1,0.2-0.2,0.4-0.4,0.6c-0.2,0.2-0.4,0.3-0.6,0.4
			c-0.2,0.1-0.5,0.1-0.8,0.1c-0.5,0-0.9-0.1-1.2-0.4c-0.3-0.2-0.5-0.6-0.7-1l-2,0.5c0.3,0.9,0.7,1.5,1.4,2c0.6,0.4,1.4,0.6,2.3,0.6
			c0.6,0,1.1-0.1,1.6-0.3c0.5-0.2,0.9-0.4,1.3-0.8c0.4-0.3,0.7-0.8,0.9-1.2c0.2-0.5,0.3-1,0.3-1.7c0-0.6-0.1-1.1-0.3-1.6
			C27.5,23.6,27.3,23.2,26.9,22.9z"/>
	</g>
</g>
</svg>
